<svg id="Layer_1" data-name="Layer 1" xmlns="http://www.w3.org/2000/svg" width="274.14339" height="40" viewBox="0 0 274.14339 40"><title>PrgsFiddler</title><path d="M111.90619,7.71337H123.7763V8.82911h-5.3414V22.28977H117.224V8.82911h-5.31781Z" fill="#fff"/><path d="M127.32666,21.45891a4.21887,4.21887,0,0,0,2.96737-1.04477v1.16353a4.71069,4.71069,0,0,1-3.06254.92561c-2.94358,0-4.91417-2.08914-4.91417-5.389,0-3.25226,1.75687-5.5789,4.55812-5.5789,2.75387,0,4.17828,2.08914,4.17828,5.15147v.42743h-7.57308C123.48064,19.96313,125.14235,21.45891,127.32666,21.45891Zm-3.79844-5.31781h6.386c-.07117-1.85163-.94961-3.56093-3.03875-3.56093C125.14235,12.58017,123.8129,13.862,123.52822,16.1411Z" fill="#fff"/><path d="M133.97229,22.28977h-1.18711V6.85852h1.18711Z" fill="#fff"/><path d="M140.78264,21.45891A4.21887,4.21887,0,0,0,143.75,20.41414v1.16353a4.71069,4.71069,0,0,1-3.06254.92561c-2.94358,0-4.91417-2.08914-4.91417-5.389,0-3.25226,1.75687-5.5789,4.55812-5.5789,2.75386,0,4.17828,2.08914,4.17828,5.15147v.42743h-7.57308C136.93662,19.96313,138.59833,21.45891,140.78264,21.45891ZM136.9842,16.1411h6.386c-.07117-1.85163-.94961-3.56093-3.03875-3.56093C138.59833,12.58017,137.26888,13.862,136.9842,16.1411Z" fill="#fff"/><path d="M151.17689,12.84126a2.45182,2.45182,0,0,0-.9734-.18992,3.09863,3.09863,0,0,0-2.80125,2.27906v7.35937h-1.18711V11.74891h1.18711v1.68571a3.186,3.186,0,0,1,2.84883-1.89922,3.032,3.032,0,0,1,.92582.14234Z" fill="#fff"/><path d="M153.05394,9.3513a.80057.80057,0,0,1-.80727-.80707.80727.80727,0,0,1,1.61454,0A.80056.80056,0,0,1,153.05394,9.3513Zm.59356,12.93847h-1.18711V11.74891h1.18711Z" fill="#fff"/><path d="M164.18,22.28977h-1.47179l-5.48394-5.41257v5.41257h-1.18711V6.85852h1.18711v9.49609l5.31781-4.6057h1.54317l-5.62649,4.81962Z" fill="#fff"/><path d="M172.34443,22.28977V7.71337H180.796V8.82911h-7.24062v5.55512h6.86077v1.09194h-6.86077v6.8136Z" fill="#fff"/><path d="M182.98574,9.3513a.8004.8004,0,0,1-.80707-.80707.80707.80707,0,1,1,1.61414,0A.8004.8004,0,0,1,182.98574,9.3513Zm.59356,12.93847h-1.18712V11.74891h1.18712Z" fill="#fff"/><path d="M193.19088,20.72281a4.0706,4.0706,0,0,1-3.276,1.78047c-3.11012,0-4.6057-2.56374-4.6057-5.48374s1.49558-5.48414,4.6057-5.48414a4.07061,4.07061,0,0,1,3.276,1.78046V6.85852h1.16333V22.28977h-1.16333Zm0-6.00632a3.60694,3.60694,0,0,0-3.18108-2.08914c-2.2079,0-3.51356,1.852-3.51356,4.39219s1.30566,4.39179,3.51356,4.39179a3.6062,3.6062,0,0,0,3.18108-2.08914Z" fill="#fff"/><path d="M204.05038,20.72281a4.07059,4.07059,0,0,1-3.276,1.78047c-3.10992,0-4.60571-2.56374-4.60571-5.48374s1.49579-5.48414,4.60571-5.48414a4.07061,4.07061,0,0,1,3.276,1.78046V6.85852h1.16333V22.28977h-1.16333Zm0-6.00632a3.60694,3.60694,0,0,0-3.18108-2.08914c-2.2079,0-3.51356,1.852-3.51356,4.39219s1.30566,4.39179,3.51356,4.39179a3.6062,3.6062,0,0,0,3.18108-2.08914Z" fill="#fff"/><path d="M208.81612,22.28977H207.629V6.85852h1.18711Z" fill="#fff"/><path d="M215.62646,21.45891a4.2189,4.2189,0,0,0,2.96738-1.04477v1.16353a4.71071,4.71071,0,0,1-3.06254.92561c-2.94358,0-4.91418-2.08914-4.91418-5.389,0-3.25226,1.75688-5.5789,4.55813-5.5789,2.75386,0,4.17828,2.08914,4.17828,5.15147v.42743h-7.57308C211.78045,19.96313,213.44216,21.45891,215.62646,21.45891ZM211.828,16.1411h6.386c-.07117-1.85163-.94961-3.56093-3.03875-3.56093C213.44216,12.58017,212.11271,13.862,211.828,16.1411Z" fill="#fff"/><path d="M226.02072,12.84126a2.45186,2.45186,0,0,0-.9734-.18992,3.09863,3.09863,0,0,0-2.80125,2.27906v7.35937H221.059V11.74891h1.18711v1.68571a3.186,3.186,0,0,1,2.84883-1.89922,3.032,3.032,0,0,1,.92582.14234Z" fill="#fff"/><path d="M166.91911,12.57959a1.5507,1.5507,0,1,1,1.53375-1.5506,1.52112,1.52112,0,0,1-1.53375,1.5506m0-2.8385a1.28835,1.28835,0,1,0,1.25405,1.2879,1.24355,1.24355,0,0,0-1.25405-1.2879m-.17791,1.576V11.834h-.45748V10.20713h.76259a.54346.54346,0,0,1,.60155.5677.47643.47643,0,0,1-.31355.49145l.37268.5677h-.50819l-.31353-.51687Zm.25416-.72875h-.25416v.36438h.25416c.13563,0,.21188-.06782.21188-.17791a.1858.1858,0,0,0-.21188-.18647" fill="#fff"/><path d="M227.40886,9.95256h1.83923v.38986h-.6865v1.763h-.45774v-1.763h-.695Zm3.22079,1.66971-.61027-.91541v1.39855h-.44068V9.95256h.41527l.65267,1.00862.66108-1.00862h.40685v2.15285h-.44068V10.70686l-.60185.91541Z" fill="#fff"/><path d="M21.65246,18.64208a.82652.82652,0,0,1-.374.64716L16.07,22.29681V10.69589L6.02411,4.89563l5.20848-3.00632a.82936.82936,0,0,1,.74877,0l9.6711,5.58411Zm-7.81709-6.65771L6.9557,8.01022a.83268.83268,0,0,0-.74794,0L1.55857,10.69505l7.25572,4.18944.00125,8.37972,4.64586-2.6844a.82968.82968,0,0,0,.374-.648Zm-12.2768,7.09L6.57839,21.974V16.173Z" fill="#5ce500"/><path d="M32.71238,7.47317H27.23779V22.299h2.42912V16.48045h3.06546c3.317,0,5.14392-1.62038,5.14392-4.56382,0-1.336-.50389-4.44346-5.16391-4.44346m2.694,4.48428c0,1.672-.86745,2.35374-2.99466,2.35374H29.66691V9.66241h3.06546c1.80029,0,2.674.75127,2.674,2.295m9.70068-.46018.18365.0887-.41228,2.19135-.2836-.08746a2.38189,2.38189,0,0,0-.70172-.10785c-2.2692,0-2.45452,1.80736-2.45452,3.99329V22.299H39.18893V11.41191h2.1093v1.31347a2.90848,2.90848,0,0,1,2.18217-1.45131,3.06074,3.06074,0,0,1,1.62664.2232m5.52955-.30484A4.80259,4.80259,0,0,0,46.535,13.14182a6.5438,6.5438,0,0,0-1.10067,3.733c0,3.44068,2.041,5.66324,5.20223,5.66324,3.84088,0,5.20349-3.09418,5.20349-5.7432a6.08968,6.08968,0,0,0-1.27016-3.895,4.91562,4.91562,0,0,0-3.93333-1.70744m0,9.33629c-1.76031,0-2.85389-1.4005-2.85389-3.65389,0-2.27753,1.09358-3.693,2.85389-3.693,1.74658,0,2.87431,1.433,2.87431,3.65346,0,2.27756-1.10192,3.69346-2.87431,3.69346m24.10759-9.03145.18366.0887-.41354,2.19135-.284-.08746a2.36891,2.36891,0,0,0-.7013-.10785c-2.2688,0-2.45286,1.80736-2.45286,3.99329V22.299H68.8265V11.41191h2.10972v1.31347a2.90774,2.90774,0,0,1,2.18216-1.45131,3.05883,3.05883,0,0,1,1.6258.2232m8.07863,7.31153-.04165.11951a2.39083,2.39083,0,0,1-2.45161,1.61914,2.82143,2.82143,0,0,1-2.90429-2.96509h7.69757l.02833-.21363a6.5769,6.5769,0,0,0,.02456-.86619c-.00042-.07082-.0025-.13451-.0025-.19658-.11244-3.04755-2.09887-5.09477-4.94362-5.09477a4.694,4.694,0,0,0-3.93957,1.889,6.49051,6.49051,0,0,0-1.16522,3.79465c0,3.364,2.09223,5.62493,5.20474,5.62493a4.4639,4.4639,0,0,0,4.67085-3.44525l.07246-.26569Zm-5.323-3.17913a2.6175,2.6175,0,0,1,2.68983-2.467,2.558,2.558,0,0,1,2.63485,2.467ZM64.72993,12.32558a3.84689,3.84689,0,0,0-2.89429-1.13315c-3.30033,0-4.80287,2.90429-4.80287,5.60244,0,2.76894,1.48505,5.56329,4.80287,5.56329a3.85593,3.85593,0,0,0,2.8085-1.13981c-.00792.47933-.02041.937-.03373,1.13148C64.488,24.146,63.6251,24.9822,61.89519,24.9822c-.94117,0-2.021-.334-2.22965-1.27183l-.04581-.207-2.21673.0004.03581.29694c.232,1.9194,1.91731,3.1121,4.39683,3.1121,2.17592,0,3.72427-.82,4.47679-2.36957a7.6366,7.6366,0,0,0,.54678-3.23371V11.41191H64.72993ZM61.9764,20.34924c-.78667,0-2.614-.35648-2.614-3.65391,0-2.16717,1.02445-3.51353,2.67316-3.51353,1.27391,0,2.63484.92285,2.63484,3.51353,0,2.28712-1.00737,3.65391-2.694,3.65391m33.58922-1.32765c0,1.73119-1.43716,3.47818-4.64795,3.47818-2.83932,0-4.52926-1.22977-4.75622-3.4615l-.02416-.22947h2.21383l.03373.16659c.27152,1.34178,1.54959,1.6233,2.57488,1.6233,1.12273,0,2.32252-.3623,2.32252-1.37678,0-.5143-.33483-.8791-.99405-1.08483-.39146-.11618-.87205-.25153-1.38052-.39354-.87578-.24488-1.782-.50015-2.3396-.69213a2.86365,2.86365,0,0,1-2.17342-2.64276c0-2.19509,2.13719-3.17789,4.254-3.17789,2.83141,0,4.29646,1.06651,4.48053,3.2595l.01873.22614-2.18175-.00167-.03039-.17282c-.21947-1.26265-1.47464-1.4513-2.20425-1.4513-.62925,0-2.09347.11242-2.09347,1.15605,0,.47432.4052.82287,1.23934,1.06483.24862.07.61926.16493,1.04694.2757.88829.22988,1.99477.5168,2.55156.70921a2.74341,2.74341,0,0,1,2.08973,2.72519m10.38989,0c0,1.73119-1.43716,3.47818-4.6467,3.47818-2.84016,0-4.53009-1.22977-4.75706-3.4615L96.528,18.8088h2.21424l.0329.16659c.27111,1.34178,1.55,1.6233,2.57529,1.6233,1.12273,0,2.32169-.3623,2.32169-1.37678,0-.5143-.33483-.8791-.99322-1.08483-.3923-.11618-.87288-.25153-1.38177-.39354-.87453-.24488-1.78072-.50015-2.33793-.69213a2.86315,2.86315,0,0,1-2.17342-2.64276c0-2.19509,2.13637-3.17789,4.25357-3.17789,2.83141,0,4.296,1.06651,4.47971,3.2595l.01915.22614-2.18135-.00167-.03039-.17282c-.21988-1.26265-1.47422-1.4513-2.20467-1.4513-.62842,0-2.09305.11242-2.09305,1.15605,0,.47432.40561.82287,1.23892,1.06483.249.07.61843.16493,1.04778.2757.88787.22988,1.99395.5168,2.55156.70921a2.74452,2.74452,0,0,1,2.08848,2.72519" fill="#fff"/><path d="M107.7355,12.57959a1.5507,1.5507,0,1,1,1.53375-1.5506,1.52112,1.52112,0,0,1-1.53375,1.5506m0-2.8385a1.28835,1.28835,0,1,0,1.254,1.2879,1.24355,1.24355,0,0,0-1.254-1.2879m-.17791,1.576V11.834h-.45748V10.20713h.7626a.54345.54345,0,0,1,.60154.5677.47644.47644,0,0,1-.31354.49145l.37267.5677h-.50818l-.31354-.51687Zm.25416-.72875h-.25416v.36438h.25416c.13563,0,.21188-.06782.21188-.17791a.1858.1858,0,0,0-.21188-.18647" fill="#fff"/><path id="docs" d="M26.66457,30.88008h3.1a4.06956,4.06956,0,0,1,4.3,4.4,4.06956,4.06956,0,0,1-4.3,4.4h-3.1Zm3,7.2a2.47573,2.47573,0,0,0,2.6-2.8,2.47573,2.47573,0,0,0-2.6-2.8h-1.2v5.5l1.2.1Zm9.8,1.7c-2.4,0-4.1-1.9-4.1-4.5s1.7-4.5,4.1-4.5,4.1,1.9,4.1,4.5S41.86457,39.78008,39.46457,39.78008Zm0-7.4c-1.4,0-2.3,1.2-2.3,2.9s.9,2.9,2.3,2.9,2.3-1.2,2.3-2.9S40.86457,32.38008,39.46457,32.38008Zm9.7-1.6a3.92825,3.92825,0,0,1,2.3.7v1.8a3.2808,3.2808,0,0,0-2.2-.9,2.52482,2.52482,0,0,0-2.6,2.8,2.52482,2.52482,0,0,0,2.6,2.8,3.71625,3.71625,0,0,0,2.2-.8v1.8a3.92825,3.92825,0,0,1-2.3.7,4.20286,4.20286,0,0,1-4.3-4.5A4.17511,4.17511,0,0,1,49.16457,30.78008Zm4.1,5.4v-5.2h1.8v5c0,1.5.7,2.2,1.8,2.2s1.8-.7,1.8-2.2v-5h1.8v5.2a3.26542,3.26542,0,0,1-3.6,3.6A3.31022,3.31022,0,0,1,53.26457,36.18008Zm13.6,1.6-2.5-3.7v5.6h-1.8v-8.7h1.7l2.6,4.1,2.6-4.1h1.7v8.7h-1.8v-5.6l-2.5,3.7Zm12.5-6.9v1.6h-4.1v1.9h3.7v1.5h-3.7v2.1h4.1v1.6h-5.9v-8.7Zm9.2,8.8h-1.4l-4.1-5.8v5.8h-1.7v-8.7h1.7l3.8,5.5v-5.5h1.7Zm1.5-8.8h7.4v1.6h-2.8v7.1h-1.8v-7.1h-2.8Zm12.5,0,3.3,8.7h-1.8l-.8-2.1h-3.3l-.8,2.1h-1.8l3.3-8.7Zm-2,5.1h2.1l-1.1-2.9Zm5.2-5.1h7.4v1.6h-2.8v7.1h-1.8v-7.1h-2.8Zm10.7,8.8h-1.8v-8.7h1.8Zm5.8.1c-2.4,0-4.1-1.9-4.1-4.5s1.7-4.5,4.1-4.5,4.1,1.9,4.1,4.5A4.051,4.051,0,0,1,122.26457,39.78008Zm0-7.4c-1.4,0-2.3,1.2-2.3,2.9s.9,2.9,2.3,2.9,2.3-1.2,2.3-2.9S123.66457,32.38008,122.26457,32.38008Zm13.2,7.3h-1.4l-4.1-5.8v5.8h-1.7v-8.7h1.7l3.8,5.5v-5.5h1.7Zm9.9-8.8,3.3,8.7h-1.8l-.8-2.1h-3.3l-.8,2.1h-1.8l3.3-8.7Zm-1.9,5.1h2.1l-1.1-2.9Zm14,3.7h-1.4l-4.1-5.8v5.8h-1.7v-8.7h1.7l3.8,5.5v-5.5h1.7Zm2.2-8.8h3.1a4.06955,4.06955,0,0,1,4.3,4.4,4.06955,4.06955,0,0,1-4.3,4.4h-3.1Zm3,7.2a2.47574,2.47574,0,0,0,2.6-2.8,2.47573,2.47573,0,0,0-2.6-2.8h-1.2v5.5l1.2.1Zm13.9-7.2,3.3,8.7h-1.8l-.8-2.1h-3.3l-.8,2.1h-1.8l3.3-8.7Zm-2,5.1h2.1l-1.1-2.9Zm8.5.6v3h-1.8v-8.7h3.5a2.78579,2.78579,0,0,1,3.1,2.9c0,1.8-1.2,2.8-3.1,2.8Zm1.7-4.1h-1.6v2.6h1.6a1.23846,1.23846,0,0,0,1.4-1.3A1.28792,1.28792,0,0,0,184.76458,32.48008Zm6.5,7.2h-1.8v-8.7h1.8Zm7.2-3.3v3.3h-1.8v-8.7h3.6c1.8,0,3.1,1,3.1,2.8a2.51387,2.51387,0,0,1-2,2.6l2.3,3.4h-2l-2.2-3.3-1-.1Zm0-1.5h1.7c.9,0,1.4-.5,1.4-1.2s-.5-1.2-1.4-1.2h-1.7Zm12.5-4v1.6h-4.1v1.9h3.7v1.5h-3.7v2.1h4.1v1.6h-5.9v-8.7Zm2,8.8v-8.7h5.8v1.6h-4v2.2h3.7v1.6h-3.7v3.3Zm13.4-8.8v1.6h-4.1v1.9h3.7v1.5h-3.7v2.1h4.1v1.6h-5.9v-8.7Zm3.8,5.5v3.3h-1.8v-8.7h3.6c1.8,0,3.1,1,3.1,2.8a2.51386,2.51386,0,0,1-2,2.6l2.3,3.4h-2l-2.2-3.3-1-.1Zm0-1.5h1.7c.9,0,1.4-.5,1.4-1.2s-.5-1.2-1.4-1.2h-1.7Zm12.5-4v1.6h-4.1v1.9h3.7v1.5h-3.7v2.1h4.1v1.6h-5.9v-8.7Zm9.3,8.8h-1.4l-4.1-5.8v5.8h-1.8v-8.7h1.7l3.8,5.5v-5.5h1.7v8.7Zm6.1-8.9a3.92828,3.92828,0,0,1,2.3.7v1.8a3.28078,3.28078,0,0,0-2.2-.9,2.52482,2.52482,0,0,0-2.6,2.8,2.52482,2.52482,0,0,0,2.6,2.8,3.71623,3.71623,0,0,0,2.2-.8v1.8a3.92828,3.92828,0,0,1-2.3.7,4.20286,4.20286,0,0,1-4.3-4.5A4.17513,4.17513,0,0,1,258.06457,30.78008Zm10.1.1v1.6h-4.1v1.9h3.7v1.5h-3.7v2.1h4.1v1.6h-5.9v-8.7Z" fill="#fff" opacity="0.4" style="isolation:isolate"/></svg>